<?xml version="1.0" encoding="UTF-8"?>
<svg id="Layer_2" xmlns="http://www.w3.org/2000/svg" version="1.1" viewBox="0 0 360 360">
  <defs>
    <style>
      .st0 { fill: #ea501d; }
      .st1 { fill: #1c1b1a; }
    </style>
  </defs>
  <path class="st1" d="M210.53,108.18c-3.14-3.14-6.49-6.01-10.02-8.58l-12.11,15.77c3.67,2.63,7.05,5.63,10.09,8.95l12.07-16.11s-.02-.02-.03-.03ZM210.17,193.23c-.96,2.21-2.03,4.36-3.22,6.43l5.48,25.79c6.86-7.3,12.27-15.62,16.08-24.61l-18.34-7.61ZM198.51,211.25c-3.13,3.42-6.61,6.5-10.4,9.19l12.15,15.74c3.62-2.61,7.05-5.54,10.27-8.76l-12.02-16.17ZM150.91,232.28c-35.55,0-64.48-28.93-64.48-64.48s28.93-64.48,64.48-64.48c10.74,0,20.87,2.64,29.79,7.31l12.25-15.96c-12.65-7.3-27.05-11.19-42.04-11.19-22.52,0-43.69,8.78-59.62,24.7-15.92,15.93-24.69,37.1-24.69,59.62,0,19.34,6.47,37.69,18.38,52.57l-11.79,12.29-5.49-5.47-39.37,39.44c-3.97,3.98-3.97,10.42,0,14.39l10.97,10.97c3.98,3.97,10.42,3.97,14.39,0l39.45-39.45-5.7-5.68,12-12.27c14.68,11.37,32.6,17.52,51.47,17.52,14.89,0,29.19-3.83,41.77-11.03l-12.31-15.93c-8.83,4.55-18.85,7.13-29.46,7.13ZM215.72,176.48l15.95,15.63c1.84-6.1,2.97-12.43,3.38-18.91l-19.33,3.28ZM231.68,143.51l-16.13,15.52,19.51,3.64c-.38-6.56-1.52-12.98-3.38-19.16ZM212.4,110.12l-5.29,26.1c1.18,2.08,2.24,4.23,3.18,6.44l18.33-7.65c-3.83-9.1-9.28-17.52-16.22-24.89Z"/>
  <polygon class="st0" points="310.18 249.76 224.03 213.75 238.68 285.93 200.26 236.18 188.11 220.44 157.1 180.29 186.08 194.52 198.51 211.25 210.53 227.42 213.78 231.8 212.43 225.45 206.95 199.66 205.14 191.14 210.17 193.23 228.51 200.84 249.44 209.52 231.67 192.11 215.72 176.48 235.05 173.2 264.6 168.18 235.06 162.67 215.55 159.03 231.68 143.51 249.61 126.25 228.62 135.01 210.29 142.66 205.39 144.71 207.11 136.22 212.4 110.12 213.61 104.14 210.56 108.21 198.49 124.32 185.57 141.58 157.61 155.47 188.4 115.37 200.51 99.6 238.85 49.67 224.28 121.42 309.92 86.52 244.27 150.14 340.84 168.18 244.53 185.38 310.18 249.76"/>
</svg>
