<?xml version="1.0" encoding="UTF-8"?>
<svg id="Layer_2" xmlns="http://www.w3.org/2000/svg" version="1.1" viewBox="0 0 360 360">
  <!-- Generator: Adobe Illustrator 29.3.1, SVG Export Plug-In . SVG Version: 2.1.0 Build 151)  -->
  <defs>
    <style>
      .st0 {
        fill: #fff;
      }

      .st1 {
        fill: #ea501d;
      }

      .st2 {
        fill: #1c1b1a;
      }
    </style>
  </defs>
  <path class="st2" d="M28.33,281.02l10.97,10.97c3.97,3.98,10.42,3.98,14.39,0l39.45-39.44-5.7-5.68,11.99-12.27c14.68,11.36,32.6,17.52,51.48,17.52,22.52,0,43.69-8.77,59.62-24.7,15.93-15.93,24.7-37.1,24.7-59.62,0-22.52-8.77-43.69-24.7-59.62-15.92-15.92-37.1-24.7-59.62-24.7-22.52,0-43.69,8.77-59.62,24.7-15.93,15.93-24.7,37.1-24.7,59.62,0,19.34,6.47,37.69,18.39,52.57l-11.79,12.29-5.49-5.47-39.38,39.45c-3.97,3.97-3.96,10.41,0,14.38ZM86.43,167.8c0-35.56,28.92-64.48,64.48-64.48,35.55,0,64.48,28.92,64.48,64.48,0,35.55-28.92,64.48-64.48,64.48-35.55,0-64.48-28.92-64.48-64.48Z"/>
  <g>
    <polygon class="st1" points="153.54 183.04 159.09 176.25 188.06 190.49 189.69 191.84 205.09 212.56 200.73 192.07 206.86 186.98 229.67 196.44 212.58 179.7 214.97 172.04 238.95 167.97 214.73 163.45 212.43 155.79 229.2 139.65 207.12 148.87 200.98 143.82 205.23 122.83 189.17 144.28 187.57 145.61 159.62 159.5 154.04 152.73 235.28 46.93 243.26 50.56 230.36 114.08 308.22 82.35 313.05 89.75 253.65 147.31 341.67 163.76 341.63 172.61 253.91 188.27 313.33 246.54 308.44 253.91 230.12 221.18 243.09 285.03 235.12 288.68 153.54 183.04"/>
    <path class="st0" d="M238.85,49.67l-14.57,71.75,85.64-34.9-65.65,63.62,96.57,18.04-96.32,17.2,65.65,64.38-86.15-36,14.65,72.17-81.58-105.63,28.97,14.23,27.7,37.27-8.64-40.66,44.3,18.38-33.71-33.04,48.88-8.3-49.05-9.15,34.05-32.78-44.22,18.47,8.22-40.58-28.04,37.44-27.95,13.89,81.24-105.8M231.71,44.19l-81.24,105.8,11.14,13.54,27.95-13.89,3.2-2.66,4.08-5.45-.28,1.4,12.29,10.09.53-.22,4.52,15.08.22.04-4.69,14.99.46.46-1.31-.54-12.25,10.18.07.32-3.1-4.17-3.26-2.71-28.97-14.23-11.09,13.58,81.58,105.63,15.94-7.29-11.28-55.53,70.48,29.45,9.77-14.73-53.19-52.16,79.14-14.13.07-17.71-79.46-14.85,53.15-51.5-9.66-14.8-70.08,28.56,11.23-55.28-15.96-7.27h0Z"/>
  </g>
</svg>