<?xml version="1.0" encoding="UTF-8"?>
<svg id="Layer_2" xmlns="http://www.w3.org/2000/svg" version="1.1" viewBox="0 0 360 360">
  <!-- Generator: Adobe Illustrator 29.3.1, SVG Export Plug-In . SVG Version: 2.1.0 Build 151)  -->
  <defs>
    <style>
      .st0 {
        fill: #fff;
      }

      .st1 {
        fill: #ea501d;
      }
    </style>
  </defs>
  <path class="st0" d="M212.4,110.12l-5.29,26.1-1.72,8.49,4.9-2.05,18.33-7.65c-3.83-9.1-9.28-17.52-16.22-24.89ZM231.68,143.51l-16.13,15.52,19.51,3.64c-.38-6.56-1.52-12.98-3.38-19.16ZM198.51,211.25l-12.43-16.73-28.98-14.23,31.01,40.15,12.15,15.74c3.62-2.61,7.05-5.54,10.27-8.76l-12.02-16.17ZM150.91,232.28c-35.55,0-64.48-28.93-64.48-64.48s28.93-64.48,64.48-64.48c10.74,0,20.87,2.64,29.79,7.31l12.25-15.96c-12.65-7.3-27.05-11.19-42.04-11.19-22.52,0-43.69,8.78-59.62,24.7-15.92,15.93-24.69,37.1-24.69,59.62,0,19.34,6.47,37.69,18.38,52.57l-11.79,12.29-5.49-5.47-39.37,39.44c-3.97,3.98-3.97,10.42,0,14.39l10.97,10.97c3.98,3.97,10.42,3.97,14.39,0l39.45-39.45-5.7-5.68,12-12.27c14.68,11.37,32.6,17.52,51.47,17.52,14.89,0,29.19-3.83,41.77-11.03l-12.31-15.93c-8.83,4.55-18.85,7.13-29.46,7.13ZM210.17,193.23l-5.03-2.09,1.81,8.52,5.48,25.79c6.86-7.3,12.27-15.62,16.08-24.61l-18.34-7.61ZM215.72,176.48l15.95,15.63c1.84-6.1,2.97-12.43,3.38-18.91l-19.33,3.28ZM210.53,108.18c-3.14-3.14-6.49-6.01-10.02-8.58l-12.11,15.77-30.79,40.1,27.96-13.89,12.92-17.26,12.07-16.11s-.02-.02-.03-.03ZM186.08,194.52l-28.98-14.23,31.01,40.15c3.79-2.69,7.27-5.77,10.4-9.19l-12.43-16.73ZM188.4,115.37l-30.79,40.1,27.96-13.89,12.92-17.26c-3.04-3.32-6.42-6.32-10.09-8.95ZM207.11,136.22l-1.72,8.49,4.9-2.05c-.94-2.21-2-4.36-3.18-6.44ZM205.14,191.14l1.81,8.52c1.19-2.07,2.26-4.22,3.22-6.43l-5.03-2.09Z"/>
  <g>
    <path class="st1" d="M310.18,249.76l-86.15-36.01,14.65,72.18-38.42-49.75-12.15-15.74-31.01-40.15,28.98,14.23,12.43,16.73,12.02,16.17,3.25,4.38-1.35-6.35-5.48-25.79-1.81-8.52,5.03,2.09,18.34,7.61,20.93,8.68-17.77-17.41-15.95-15.63,19.33-3.28,29.55-5.02-29.54-5.51-19.51-3.64,16.13-15.52,17.93-17.26-20.99,8.76-18.33,7.65-4.9,2.05,1.72-8.49,5.29-26.1c-.6-.64-1.21-1.28-1.84-1.91l-12.07,16.11-12.92,17.26-27.96,13.89,30.79-40.1,12.11-15.77,38.34-49.93-14.57,71.75,85.64-34.9-65.65,63.62,96.57,18.04-96.31,17.2,65.65,64.38Z"/>
    <path class="st0" d="M210.56,108.21c.63.63,1.24,1.27,1.84,1.91l1.21-5.98-3.05,4.07ZM210.56,108.21c.63.63,1.24,1.27,1.84,1.91l1.21-5.98-3.05,4.07ZM210.56,108.21c.63.63,1.24,1.27,1.84,1.91l1.21-5.98-3.05,4.07ZM210.56,108.21c.63.63,1.24,1.27,1.84,1.91l1.21-5.98-3.05,4.07Z"/>
  </g>
</svg>